<svg width="217" height="458" viewBox="0 0 217 458" fill="none" xmlns="http://www.w3.org/2000/svg">
<g clip-path="url(#clip0)">
<path fill-rule="evenodd" clip-rule="evenodd" d="M215.953 27C215.953 12.098 203.855 0 188.953 0H26.9532C12.0512 0 -0.0467529 12.098 -0.0467529 27V431C-0.0467529 445.902 12.0512 458 26.9532 458H188.953C203.855 458 215.953 445.902 215.953 431V27Z" fill="#F2F2F2"/>
<path fill-rule="evenodd" clip-rule="evenodd" d="M126.955 38.4801C126.955 37.1014 125.836 35.9817 124.457 35.9817H93.4519C92.0711 35.9817 90.9513 37.1014 90.9513 38.4801C90.9513 39.8598 92.0711 40.9795 93.4519 40.9795H124.457C125.836 40.9795 126.955 39.8598 126.955 38.4801Z" fill="#ACACAC"/>
<path d="M108.453 449.626C120.017 449.626 129.391 440.252 129.391 428.688C129.391 417.124 120.017 407.75 108.453 407.75C96.8895 407.75 87.5153 417.124 87.5153 428.688C87.5153 440.252 96.8895 449.626 108.453 449.626Z" fill="#FAFAFA"/>
<path fill-rule="evenodd" clip-rule="evenodd" d="M112.665 420.413L112.771 420.418L112.875 420.424L112.979 420.433L113.082 420.445L113.184 420.459L113.285 420.475L113.386 420.495L113.486 420.517L113.585 420.541L113.683 420.567L113.78 420.597L113.875 420.627L113.97 420.661L114.064 420.697L114.157 420.734L114.249 420.775L114.338 420.817L114.428 420.861L114.515 420.908L114.603 420.956L114.688 421.006L114.772 421.059L114.854 421.113L114.936 421.17L115.016 421.228L115.094 421.288L115.171 421.35L115.246 421.414L115.319 421.479L115.391 421.546L115.462 421.615L115.531 421.686L115.598 421.758L115.663 421.831L115.728 421.906L115.789 421.984L115.849 422.061L115.907 422.141L115.964 422.223L116.018 422.305L116.071 422.389L116.121 422.474L116.169 422.562L116.216 422.649L116.26 422.739L116.302 422.828L116.343 422.92L116.381 423.013L116.416 423.107L116.45 423.202L116.48 423.298L116.51 423.394L116.536 423.492L116.56 423.591L116.582 423.691L116.602 423.792L116.618 423.893L116.632 423.995L116.644 424.099L116.653 424.202L116.661 424.307L116.664 424.412L116.665 424.518V432.73L116.664 432.836L116.661 432.942L116.653 433.046L116.644 433.15L116.632 433.253L116.618 433.356L116.602 433.456L116.582 433.558L116.56 433.657L116.536 433.756L116.51 433.854L116.48 433.951L116.45 434.047L116.416 434.141L116.381 434.235L116.343 434.328L116.302 434.42L116.26 434.51L116.216 434.599L116.169 434.687L116.121 434.774L116.071 434.859L116.018 434.943L115.964 435.026L115.907 435.107L115.849 435.186L115.789 435.265L115.728 435.342L115.663 435.417L115.598 435.49L115.531 435.562L115.462 435.633L115.391 435.702L115.319 435.77L115.246 435.834L115.171 435.899L115.094 435.96L115.016 436.02L114.936 436.079L114.854 436.135L114.772 436.189L114.688 436.242L114.603 436.292L114.515 436.341L114.428 436.387L114.338 436.432L114.249 436.473L114.157 436.514L114.064 436.552L113.97 436.587L113.875 436.621L113.78 436.651L113.683 436.681L113.585 436.707L113.486 436.731L113.386 436.753L113.285 436.772L113.184 436.789L113.082 436.803L112.979 436.815L112.875 436.825L112.771 436.831L112.665 436.835L112.559 436.837H104.347L104.241 436.835L104.135 436.831L104.032 436.825L103.928 436.815L103.824 436.803L103.722 436.789L103.621 436.772L103.52 436.753L103.42 436.731L103.322 436.707L103.223 436.681L103.126 436.651L103.031 436.621L102.936 436.587L102.842 436.552L102.749 436.514L102.657 436.473L102.568 436.432L102.478 436.387L102.391 436.341L102.304 436.292L102.218 436.242L102.134 436.189L102.052 436.135L101.97 436.079L101.891 436.02L101.812 435.96L101.736 435.899L101.66 435.834L101.587 435.77L101.515 435.702L101.444 435.633L101.375 435.562L101.308 435.49L101.243 435.417L101.179 435.342L101.117 435.265L101.057 435.186L100.998 435.107L100.943 435.026L100.888 434.943L100.836 434.859L100.785 434.774L100.737 434.687L100.69 434.599L100.645 434.51L100.604 434.42L100.564 434.328L100.525 434.235L100.49 434.141L100.457 434.047L100.426 433.951L100.396 433.854L100.37 433.756L100.346 433.657L100.324 433.558L100.305 433.456L100.288 433.356L100.274 433.253L100.262 433.15L100.253 433.046L100.246 432.942L100.242 432.836L100.241 432.73V424.518L100.242 424.412L100.246 424.307L100.253 424.202L100.262 424.099L100.274 423.995L100.288 423.893L100.305 423.792L100.324 423.691L100.346 423.591L100.37 423.492L100.396 423.394L100.426 423.298L100.457 423.202L100.49 423.107L100.525 423.013L100.564 422.92L100.604 422.828L100.645 422.739L100.69 422.649L100.737 422.562L100.785 422.474L100.836 422.389L100.888 422.305L100.943 422.223L100.998 422.141L101.057 422.061L101.117 421.984L101.179 421.906L101.243 421.831L101.308 421.758L101.375 421.686L101.444 421.615L101.515 421.546L101.587 421.479L101.66 421.414L101.736 421.35L101.812 421.288L101.891 421.228L101.97 421.17L102.052 421.113L102.134 421.059L102.218 421.006L102.304 420.956L102.391 420.908L102.478 420.861L102.568 420.817L102.657 420.775L102.749 420.734L102.842 420.697L102.936 420.661L103.031 420.627L103.126 420.597L103.223 420.567L103.322 420.541L103.42 420.517L103.52 420.495L103.621 420.475L103.722 420.459L103.824 420.445L103.928 420.433L104.032 420.424L104.135 420.418L104.241 420.413L104.347 420.412H112.559L112.665 420.413ZM104.359 422.301L104.289 422.302L104.231 422.304L104.175 422.307L104.119 422.313L104.063 422.319L104.008 422.327L103.953 422.336L103.899 422.345L103.846 422.357L103.792 422.371L103.74 422.385L103.689 422.4L103.636 422.416L103.586 422.435L103.536 422.454L103.485 422.474L103.436 422.496L103.388 422.518L103.34 422.542L103.292 422.567L103.246 422.593L103.2 422.621L103.154 422.649L103.11 422.679L103.066 422.709L103.022 422.741L102.98 422.774L102.938 422.806L102.898 422.841L102.857 422.877L102.818 422.913L102.78 422.951L102.743 422.989L102.706 423.028L102.671 423.069L102.636 423.109L102.602 423.15L102.57 423.193L102.538 423.237L102.508 423.28L102.478 423.325L102.45 423.371L102.423 423.417L102.396 423.464L102.371 423.511L102.347 423.559L102.325 423.607L102.304 423.656L102.283 423.706L102.264 423.757L102.246 423.808L102.229 423.859L102.214 423.911L102.2 423.963L102.187 424.017L102.175 424.07L102.165 424.124L102.155 424.178L102.147 424.234L102.142 424.29L102.136 424.345L102.133 424.402L102.131 424.46L102.13 424.53V432.718L102.131 432.789L102.133 432.846L102.136 432.902L102.142 432.959L102.147 433.015L102.155 433.07L102.165 433.124L102.175 433.179L102.187 433.232L102.2 433.285L102.214 433.337L102.229 433.39L102.246 433.441L102.264 433.491L102.283 433.541L102.304 433.592L102.325 433.641L102.347 433.689L102.371 433.737L102.396 433.785L102.423 433.832L102.45 433.878L102.478 433.923L102.508 433.967L102.538 434.011L102.57 434.055L102.602 434.097L102.636 434.139L102.671 434.18L102.706 434.22L102.743 434.259L102.78 434.297L102.818 434.334L102.857 434.372L102.898 434.407L102.938 434.441L102.98 434.475L103.022 434.507L103.066 434.54L103.11 434.57L103.154 434.599L103.199 434.627L103.246 434.654L103.292 434.681L103.34 434.706L103.388 434.73L103.436 434.753L103.485 434.774L103.536 434.794L103.586 434.814L103.636 434.831L103.688 434.848L103.74 434.863L103.792 434.877L103.846 434.89L103.899 434.902L103.953 434.912L104.008 434.922L104.063 434.93L104.119 434.936L104.175 434.941L104.231 434.944L104.289 434.946L104.359 434.947H112.547L112.617 434.946L112.675 434.944L112.732 434.941L112.787 434.936L112.843 434.93L112.899 434.922L112.953 434.912L113.007 434.902L113.06 434.89L113.114 434.877L113.166 434.863L113.219 434.848L113.27 434.831L113.32 434.814L113.371 434.794L113.421 434.774L113.47 434.753L113.518 434.73L113.566 434.706L113.614 434.681L113.66 434.654L113.707 434.627L113.752 434.599L113.797 434.569L113.84 434.54L113.884 434.507L113.927 434.475L113.968 434.441L114.009 434.408L114.049 434.372L114.088 434.334L114.127 434.297L114.164 434.259L114.201 434.22L114.236 434.18L114.271 434.139L114.305 434.097L114.336 434.055L114.368 434.012L114.399 433.967L114.428 433.923L114.456 433.878L114.484 433.832L114.51 433.785L114.535 433.737L114.559 433.689L114.581 433.641L114.603 433.592L114.624 433.541L114.642 433.491L114.661 433.441L114.677 433.39L114.692 433.337L114.707 433.285L114.72 433.232L114.732 433.179L114.741 433.124L114.751 433.07L114.759 433.015L114.764 432.959L114.77 432.902L114.773 432.846L114.775 432.788L114.776 432.718V424.53L114.775 424.46L114.773 424.402L114.77 424.345L114.764 424.29L114.759 424.234L114.751 424.178L114.741 424.124L114.732 424.07L114.72 424.017L114.707 423.963L114.692 423.911L114.677 423.859L114.661 423.808L114.642 423.757L114.624 423.706L114.603 423.656L114.581 423.607L114.559 423.559L114.535 423.511L114.51 423.464L114.484 423.417L114.456 423.371L114.428 423.325L114.399 423.28L114.368 423.237L114.336 423.193L114.305 423.15L114.271 423.109L114.236 423.069L114.201 423.028L114.164 422.989L114.127 422.951L114.088 422.913L114.049 422.877L114.009 422.841L113.968 422.806L113.927 422.774L113.884 422.741L113.84 422.709L113.797 422.679L113.752 422.649L113.706 422.621L113.66 422.593L113.614 422.567L113.566 422.542L113.518 422.518L113.47 422.496L113.421 422.474L113.371 422.454L113.32 422.435L113.27 422.416L113.218 422.4L113.166 422.385L113.114 422.371L113.06 422.357L113.007 422.345L112.953 422.336L112.899 422.327L112.843 422.319L112.787 422.313L112.732 422.307L112.675 422.304L112.617 422.302L112.547 422.301H104.359Z" fill="#BABABA"/>
<path d="M108.453 25.3599C110.904 25.3599 112.891 23.3729 112.891 20.9219C112.891 18.4708 110.904 16.4839 108.453 16.4839C106.002 16.4839 104.015 18.4708 104.015 20.9219C104.015 23.3729 106.002 25.3599 108.453 25.3599Z" fill="#D8D8D8"/>
<path d="M108.453 22.906C109.54 22.906 110.421 22.0249 110.421 20.938C110.421 19.8511 109.54 18.97 108.453 18.97C107.366 18.97 106.485 19.8511 106.485 20.938C106.485 22.0249 107.366 22.906 108.453 22.906Z" fill="#EB5055"/>
<path d="M202.453 65.0237H14.4514V398.024H202.453V65.0237Z" fill="#161616"/>
<path fill-rule="evenodd" clip-rule="evenodd" d="M203.603 62.2534L204.573 62.9027L205.226 63.8779L205.455 65.0238V398.024L205.226 399.172L204.573 400.147L203.603 400.797L202.453 401.026H14.4514L13.3049 400.797L12.3314 400.147L11.6824 399.172L11.4531 398.024V65.0238L11.6824 63.8779L12.3314 62.9027L13.3049 62.2534L14.4514 62.0242H202.453L203.603 62.2534ZM14.4514 65.0238V398.024H202.453V65.0238H14.4514Z" fill="#C7C7C7"/>
</g>
<defs>
<clipPath id="clip0">
<rect width="216" height="458" fill="white" transform="translate(0.453247)"/>
</clipPath>
</defs>
</svg>
