<svg width="459" height="216" viewBox="0 0 459 216" fill="none" xmlns="http://www.w3.org/2000/svg">
<g clip-path="url(#clip0)">
<path fill-rule="evenodd" clip-rule="evenodd" d="M431.453 215.5C446.355 215.5 458.453 203.402 458.453 188.5V26.5C458.453 11.598 446.355 -0.5 431.453 -0.5L27.4534 -0.5C12.5514 -0.5 0.453369 11.598 0.453369 26.5V188.5C0.453369 203.402 12.5514 215.5 27.4534 215.5L431.453 215.5Z" fill="#F2F2F2"/>
<path fill-rule="evenodd" clip-rule="evenodd" d="M419.973 126.502C421.352 126.502 422.472 125.382 422.472 124.004V92.9986C422.472 91.6179 421.352 90.498 419.973 90.498C418.594 90.498 417.474 91.6179 417.474 92.9986V124.004C417.474 125.382 418.594 126.502 419.973 126.502Z" fill="#ACACAC"/>
<path d="M8.82736 108C8.82736 119.564 18.2016 128.938 29.7654 128.938C41.3291 128.938 50.7034 119.564 50.7034 108C50.7034 96.4363 41.3291 87.062 29.7654 87.062C18.2016 87.062 8.82736 96.4363 8.82736 108Z" fill="#FAFAFA"/>
<path fill-rule="evenodd" clip-rule="evenodd" d="M38.0401 112.212L38.0357 112.318L38.0292 112.422L38.0204 112.525L38.0084 112.629L37.9942 112.731L37.9779 112.832L37.9582 112.933L37.9363 113.033L37.9123 113.131L37.8861 113.23L37.8566 113.327L37.826 113.422L37.7922 113.517L37.7561 113.611L37.719 113.704L37.6786 113.796L37.636 113.885L37.5923 113.975L37.5453 114.062L37.4973 114.15L37.447 114.235L37.3946 114.319L37.34 114.401L37.2831 114.483L37.2252 114.562L37.1652 114.641L37.1029 114.718L37.0396 114.793L36.974 114.866L36.9074 114.938L36.8386 115.009L36.7676 115.078L36.6955 115.145L36.6223 115.21L36.5469 115.275L36.4694 115.336L36.3918 115.396L36.3121 115.454L36.2302 115.511L36.1483 115.565L36.0642 115.618L35.979 115.668L35.8916 115.716L35.8042 115.763L35.7146 115.807L35.625 115.849L35.5333 115.89L35.4404 115.928L35.3465 115.963L35.2515 115.997L35.1554 116.027L35.0592 116.057L34.9609 116.083L34.8626 116.107L34.7622 116.129L34.6617 116.148L34.5601 116.165L34.4585 116.179L34.3547 116.191L34.251 116.2L34.1461 116.207L34.0412 116.211L33.9353 116.212H25.7234L25.6175 116.211L25.5115 116.207L25.4078 116.2L25.3029 116.191L25.2002 116.179L25.0976 116.165L24.9971 116.148L24.8955 116.129L24.7961 116.107L24.6978 116.083L24.5995 116.057L24.5023 116.027L24.4061 115.997L24.3122 115.963L24.2183 115.928L24.1254 115.89L24.0337 115.849L23.943 115.807L23.8545 115.763L23.7661 115.716L23.6798 115.668L23.5946 115.618L23.5105 115.565L23.4275 115.511L23.3466 115.454L23.2669 115.396L23.1882 115.336L23.1118 115.275L23.0364 115.21L22.9632 115.145L22.8911 115.078L22.8201 115.009L22.7513 114.938L22.6836 114.866L22.6192 114.793L22.5547 114.718L22.4935 114.641L22.4335 114.562L22.3745 114.483L22.3188 114.401L22.2642 114.319L22.2117 114.235L22.1615 114.15L22.1123 114.062L22.0665 113.975L22.0217 113.885L21.9802 113.796L21.9398 113.704L21.9015 113.611L21.8666 113.517L21.8327 113.422L21.8021 113.327L21.7726 113.23L21.7464 113.131L21.7224 113.033L21.7005 112.933L21.6809 112.832L21.6645 112.731L21.6503 112.629L21.6383 112.525L21.6284 112.422L21.6219 112.318L21.6186 112.212L21.6164 112.106V103.894L21.6186 103.788L21.6219 103.682L21.6284 103.578L21.6383 103.475L21.6503 103.371L21.6645 103.269L21.6809 103.168L21.7005 103.067L21.7224 102.967L21.7464 102.868L21.7726 102.77L21.8021 102.673L21.8327 102.578L21.8666 102.483L21.9015 102.389L21.9398 102.296L21.9802 102.204L22.0217 102.115L22.0665 102.025L22.1123 101.938L22.1615 101.85L22.2117 101.765L22.2642 101.681L22.3188 101.599L22.3745 101.517L22.4335 101.437L22.4935 101.359L22.5547 101.282L22.6192 101.207L22.6836 101.134L22.7513 101.062L22.8201 100.991L22.8911 100.922L22.9632 100.855L23.0364 100.79L23.1118 100.725L23.1882 100.664L23.2669 100.604L23.3466 100.545L23.4275 100.489L23.5105 100.435L23.5946 100.382L23.6798 100.332L23.7661 100.284L23.8545 100.237L23.943 100.192L24.0337 100.151L24.1254 100.11L24.2183 100.072L24.3122 100.037L24.4061 100.003L24.5023 99.9727L24.5995 99.9432L24.6978 99.917L24.7961 99.8929L24.8955 99.8711L24.9971 99.8514L25.0976 99.8351L25.2002 99.8209L25.3029 99.8088L25.4078 99.8001L25.5115 99.7925L25.6175 99.7892L25.7234 99.7881H33.9353L34.0412 99.7892L34.1461 99.7925L34.251 99.8001L34.3547 99.8088L34.4585 99.8209L34.5601 99.8351L34.6617 99.8514L34.7622 99.8711L34.8626 99.8929L34.9609 99.917L35.0592 99.9432L35.1554 99.9727L35.2515 100.003L35.3465 100.037L35.4404 100.072L35.5333 100.11L35.625 100.151L35.7146 100.192L35.8042 100.237L35.8916 100.284L35.979 100.332L36.0642 100.382L36.1483 100.435L36.2302 100.489L36.3121 100.545L36.3918 100.604L36.4694 100.664L36.5469 100.725L36.6223 100.79L36.6955 100.855L36.7676 100.922L36.8386 100.991L36.9074 101.062L36.974 101.134L37.0396 101.207L37.1029 101.282L37.1652 101.359L37.2252 101.437L37.2831 101.517L37.34 101.599L37.3946 101.681L37.447 101.765L37.4973 101.85L37.5453 101.938L37.5923 102.025L37.636 102.115L37.6786 102.204L37.719 102.296L37.7561 102.389L37.7922 102.483L37.826 102.578L37.8566 102.673L37.8861 102.77L37.9123 102.868L37.9363 102.967L37.9582 103.067L37.9779 103.168L37.9942 103.269L38.0084 103.371L38.0204 103.475L38.0292 103.578L38.0357 103.682L38.0401 103.788L38.0412 103.894V112.106L38.0401 112.212ZM36.1526 103.906L36.1515 103.836L36.1494 103.778L36.1461 103.721L36.1406 103.666L36.1341 103.61L36.1264 103.554L36.1177 103.5L36.1079 103.446L36.0958 103.393L36.0827 103.339L36.0685 103.287L36.0532 103.235L36.0369 103.183L36.0183 103.133L35.9997 103.082L35.979 103.032L35.9571 102.983L35.9353 102.935L35.9112 102.887L35.8861 102.839L35.8599 102.793L35.8326 102.747L35.8042 102.701L35.7747 102.656L35.7441 102.613L35.7124 102.569L35.6797 102.526L35.6469 102.485L35.6119 102.445L35.5759 102.404L35.5398 102.365L35.5027 102.327L35.4645 102.289L35.4252 102.252L35.3847 102.217L35.3443 102.182L35.3028 102.149L35.2602 102.117L35.2165 102.085L35.1728 102.055L35.1281 102.025L35.0822 101.997L35.0363 101.969L34.9893 101.943L34.9424 101.918L34.8943 101.894L34.8463 101.872L34.7971 101.85L34.7469 101.83L34.6966 101.811L34.6453 101.792L34.5939 101.776L34.5426 101.761L34.4902 101.747L34.4367 101.733L34.3831 101.721L34.3296 101.712L34.275 101.702L34.2193 101.694L34.1636 101.689L34.1078 101.683L34.0511 101.68L33.9932 101.678L33.9233 101.677H25.7355L25.6645 101.678L25.6077 101.68L25.5509 101.683L25.4941 101.689L25.4384 101.694L25.3837 101.702L25.3291 101.712L25.2745 101.721L25.221 101.733L25.1686 101.747L25.1161 101.761L25.0637 101.776L25.0124 101.792L24.9621 101.811L24.9119 101.83L24.8616 101.85L24.8125 101.872L24.7644 101.894L24.7163 101.918L24.6683 101.943L24.6213 101.969L24.5754 101.997L24.5307 102.025L24.4859 102.055L24.4422 102.085L24.3985 102.117L24.3559 102.149L24.3144 102.182L24.2729 102.217L24.2336 102.252L24.1942 102.289L24.156 102.327L24.1189 102.365L24.0817 102.404L24.0468 102.445L24.0118 102.485L23.978 102.526L23.9463 102.569L23.9135 102.613L23.8829 102.656L23.8545 102.701L23.8261 102.746L23.7988 102.793L23.7726 102.839L23.7475 102.887L23.7235 102.935L23.7005 102.983L23.6798 103.032L23.659 103.082L23.6394 103.133L23.6219 103.183L23.6055 103.234L23.5902 103.287L23.576 103.339L23.5629 103.393L23.5509 103.446L23.5411 103.5L23.5312 103.554L23.5236 103.61L23.517 103.666L23.5127 103.721L23.5094 103.778L23.5072 103.836L23.5061 103.906V112.094L23.5072 112.164L23.5094 112.222L23.5127 112.278L23.517 112.334L23.5236 112.39L23.5312 112.446L23.5411 112.5L23.5509 112.554L23.5629 112.607L23.576 112.661L23.5902 112.713L23.6055 112.766L23.6219 112.817L23.6394 112.867L23.659 112.917L23.6798 112.968L23.7005 113.017L23.7235 113.065L23.7475 113.113L23.7726 113.161L23.7988 113.207L23.8261 113.254L23.8545 113.299L23.884 113.343L23.9135 113.387L23.9463 113.431L23.978 113.473L24.0118 113.515L24.0457 113.555L24.0817 113.596L24.1189 113.635L24.156 113.673L24.1942 113.71L24.2336 113.748L24.2729 113.783L24.3144 113.817L24.3559 113.851L24.3985 113.883L24.4411 113.915L24.4859 113.945L24.5307 113.975L24.5754 114.003L24.6213 114.03L24.6683 114.057L24.7163 114.082L24.7644 114.106L24.8125 114.128L24.8616 114.15L24.9119 114.17L24.9621 114.189L25.0124 114.207L25.0637 114.224L25.1161 114.239L25.1686 114.253L25.221 114.266L25.2745 114.278L25.3291 114.288L25.3837 114.298L25.4384 114.306L25.4941 114.311L25.5509 114.317L25.6077 114.32L25.6656 114.322L25.7355 114.323H33.9233L33.9932 114.322L34.0511 114.32L34.1078 114.317L34.1636 114.311L34.2193 114.306L34.275 114.298L34.3296 114.288L34.3831 114.278L34.4367 114.266L34.4902 114.253L34.5426 114.239L34.5939 114.224L34.6453 114.207L34.6966 114.189L34.7469 114.17L34.7971 114.15L34.8463 114.128L34.8943 114.106L34.9424 114.082L34.9893 114.057L35.0363 114.03L35.0822 114.003L35.1281 113.975L35.1728 113.945L35.2165 113.915L35.2602 113.883L35.3028 113.851L35.3443 113.817L35.3847 113.783L35.4252 113.748L35.4645 113.71L35.5027 113.673L35.5398 113.635L35.5759 113.596L35.6119 113.555L35.6469 113.515L35.6797 113.473L35.7124 113.431L35.7441 113.387L35.7747 113.343L35.8042 113.299L35.8326 113.253L35.8599 113.207L35.8861 113.161L35.9112 113.113L35.9353 113.065L35.9571 113.017L35.979 112.968L35.9997 112.917L36.0183 112.867L36.0369 112.817L36.0532 112.764L36.0685 112.713L36.0827 112.661L36.0958 112.607L36.1079 112.554L36.1177 112.5L36.1264 112.446L36.1341 112.39L36.1406 112.334L36.1461 112.278L36.1494 112.222L36.1515 112.164L36.1526 112.094V103.906Z" fill="#BABABA"/>
<path d="M433.093 108C433.093 110.451 435.08 112.438 437.531 112.438C439.982 112.438 441.969 110.451 441.969 108C441.969 105.549 439.982 103.562 437.531 103.562C435.08 103.562 433.093 105.549 433.093 108Z" fill="#D8D8D8"/>
<path d="M435.547 108C435.547 109.087 436.428 109.968 437.515 109.968C438.602 109.968 439.483 109.087 439.483 108C439.483 106.913 438.602 106.032 437.515 106.032C436.428 106.032 435.547 106.913 435.547 108Z" fill="#EB5055"/>
<path d="M393.43 201.999V13.9983L60.4293 13.9983V201.999L393.43 201.999Z" fill="#161616"/>
<path fill-rule="evenodd" clip-rule="evenodd" d="M396.2 203.15L395.551 204.119L394.576 204.773L393.43 205.002L60.4293 205.002L59.2811 204.773L58.306 204.119L57.6567 203.15L57.4274 201.999V13.9983L57.6567 12.8518L58.306 11.8783L59.2811 11.2293L60.4293 11L393.43 11L394.576 11.2293L395.551 11.8783L396.2 12.8518L396.429 13.9983V201.999L396.2 203.15ZM393.43 13.9983L60.4293 13.9983V201.999L393.43 201.999V13.9983Z" fill="#C7C7C7"/>
</g>
<defs>
<clipPath id="clip0">
<rect width="216" height="458" fill="white" transform="translate(458.453) rotate(90)"/>
</clipPath>
</defs>
</svg>
