<svg width="230" height="487" viewBox="0 0 230 487" fill="none" xmlns="http://www.w3.org/2000/svg">
<g clip-path="url(#clip0)">
<path fill-rule="evenodd" clip-rule="evenodd" d="M229.338 29.177C229.338 13.3494 216.489 0.5 200.661 0.5H28.5993C12.7717 0.5 -0.0776978 13.3494 -0.0776978 29.177V458.27C-0.0776978 474.098 12.7717 486.947 28.5993 486.947H200.661C216.489 486.947 229.338 474.098 229.338 458.27V29.177Z" fill="#F2F2F2"/>
<path fill-rule="evenodd" clip-rule="evenodd" d="M134.813 41.3701C134.813 39.9059 133.623 38.7166 132.16 38.7166H99.2283C97.7618 38.7166 96.5724 39.9059 96.5724 41.3701C96.5724 42.8355 97.7618 44.0248 99.2283 44.0248H132.16C133.623 44.0248 134.813 42.8355 134.813 41.3701Z" fill="#ACACAC"/>
<path d="M115.161 478.053C127.443 478.053 137.4 468.097 137.4 455.815C137.4 443.533 127.443 433.576 115.161 433.576C102.879 433.576 92.9229 443.533 92.9229 455.815C92.9229 468.097 102.879 478.053 115.161 478.053Z" fill="#FAFAFA"/>
<path fill-rule="evenodd" clip-rule="evenodd" d="M119.635 447.026L119.747 447.03L119.858 447.037L119.968 447.047L120.078 447.059L120.186 447.075L120.294 447.092L120.401 447.113L120.507 447.136L120.612 447.162L120.716 447.189L120.819 447.221L120.92 447.253L121.021 447.289L121.121 447.327L121.22 447.367L121.317 447.41L121.412 447.455L121.507 447.501L121.6 447.551L121.693 447.602L121.783 447.656L121.873 447.711L121.96 447.769L122.047 447.83L122.131 447.891L122.215 447.955L122.296 448.021L122.376 448.088L122.454 448.158L122.531 448.229L122.606 448.302L122.679 448.377L122.75 448.454L122.819 448.532L122.888 448.612L122.953 448.694L123.017 448.776L123.078 448.861L123.138 448.948L123.196 449.035L123.252 449.125L123.305 449.215L123.357 449.308L123.406 449.401L123.453 449.496L123.498 449.591L123.541 449.688L123.582 449.787L123.619 449.887L123.655 449.988L123.687 450.09L123.718 450.192L123.746 450.296L123.772 450.401L123.795 450.507L123.816 450.614L123.833 450.722L123.848 450.83L123.861 450.94L123.87 451.05L123.879 451.162L123.882 451.273L123.883 451.386V460.108L123.882 460.22L123.879 460.333L123.87 460.443L123.861 460.554L123.848 460.663L123.833 460.772L123.816 460.879L123.795 460.987L123.772 461.092L123.746 461.197L123.718 461.301L123.687 461.405L123.655 461.507L123.619 461.606L123.582 461.706L123.541 461.805L123.498 461.902L123.453 461.999L123.406 462.093L123.357 462.186L123.305 462.278L123.252 462.369L123.196 462.458L123.138 462.546L123.078 462.632L123.017 462.717L122.953 462.8L122.888 462.881L122.819 462.961L122.75 463.039L122.679 463.116L122.606 463.191L122.531 463.264L122.454 463.336L122.376 463.405L122.296 463.473L122.215 463.538L122.131 463.602L122.047 463.664L121.96 463.724L121.873 463.782L121.783 463.837L121.693 463.891L121.6 463.943L121.507 463.992L121.412 464.039L121.317 464.083L121.22 464.126L121.121 464.167L121.021 464.204L120.92 464.24L120.819 464.272L120.716 464.304L120.612 464.332L120.507 464.357L120.401 464.38L120.294 464.401L120.186 464.419L120.078 464.434L119.968 464.446L119.858 464.457L119.747 464.464L119.635 464.467L119.522 464.47H110.8L110.688 464.467L110.575 464.464L110.465 464.457L110.355 464.446L110.245 464.434L110.137 464.419L110.029 464.401L109.922 464.38L109.815 464.357L109.711 464.332L109.607 464.304L109.503 464.272L109.402 464.24L109.301 464.204L109.202 464.167L109.103 464.126L109.006 464.083L108.911 464.039L108.815 463.992L108.723 463.943L108.63 463.891L108.539 463.837L108.45 463.782L108.363 463.724L108.276 463.664L108.191 463.602L108.108 463.538L108.027 463.473L107.946 463.405L107.869 463.336L107.792 463.264L107.717 463.191L107.644 463.116L107.573 463.039L107.503 462.961L107.435 462.881L107.37 462.8L107.306 462.717L107.243 462.632L107.184 462.546L107.126 462.458L107.071 462.369L107.017 462.278L106.966 462.186L106.916 462.093L106.869 461.999L106.825 461.902L106.782 461.805L106.741 461.706L106.704 461.606L106.668 461.507L106.636 461.405L106.604 461.301L106.576 461.197L106.551 461.092L106.528 460.987L106.507 460.879L106.489 460.772L106.474 460.663L106.461 460.554L106.452 460.443L106.444 460.333L106.441 460.22L106.439 460.108V451.386L106.441 451.273L106.444 451.162L106.452 451.05L106.461 450.94L106.474 450.83L106.489 450.722L106.507 450.614L106.528 450.507L106.551 450.401L106.576 450.296L106.604 450.192L106.636 450.09L106.668 449.988L106.704 449.887L106.741 449.787L106.782 449.688L106.825 449.591L106.869 449.496L106.916 449.401L106.966 449.308L107.017 449.215L107.071 449.125L107.126 449.035L107.184 448.948L107.243 448.861L107.306 448.776L107.37 448.694L107.435 448.612L107.503 448.532L107.573 448.454L107.644 448.377L107.717 448.302L107.792 448.229L107.869 448.158L107.946 448.088L108.027 448.021L108.108 447.955L108.191 447.891L108.276 447.83L108.363 447.769L108.45 447.711L108.539 447.656L108.63 447.602L108.723 447.551L108.815 447.501L108.911 447.455L109.006 447.41L109.103 447.367L109.202 447.327L109.301 447.289L109.402 447.253L109.503 447.221L109.607 447.189L109.711 447.162L109.815 447.136L109.922 447.113L110.029 447.092L110.137 447.075L110.245 447.059L110.355 447.047L110.465 447.037L110.575 447.03L110.688 447.026L110.8 447.025H119.522L119.635 447.026ZM110.813 449.031L110.739 449.032L110.677 449.034L110.617 449.037L110.558 449.043L110.499 449.05L110.44 449.058L110.382 449.068L110.325 449.078L110.268 449.091L110.211 449.105L110.155 449.12L110.101 449.136L110.045 449.153L109.992 449.173L109.938 449.193L109.885 449.215L109.833 449.238L109.782 449.261L109.731 449.287L109.68 449.314L109.631 449.341L109.582 449.37L109.534 449.401L109.486 449.432L109.44 449.464L109.393 449.498L109.348 449.533L109.304 449.568L109.261 449.605L109.218 449.643L109.176 449.681L109.136 449.721L109.096 449.761L109.057 449.803L109.02 449.846L108.982 449.889L108.946 449.933L108.913 449.978L108.879 450.025L108.847 450.071L108.815 450.119L108.785 450.167L108.756 450.216L108.728 450.266L108.702 450.316L108.676 450.367L108.653 450.418L108.63 450.47L108.608 450.524L108.588 450.577L108.568 450.632L108.551 450.686L108.535 450.741L108.52 450.796L108.506 450.853L108.493 450.91L108.482 450.967L108.472 451.025L108.464 451.084L108.458 451.143L108.452 451.202L108.449 451.263L108.446 451.324L108.445 451.398V460.095L108.446 460.17L108.449 460.23L108.452 460.291L108.458 460.351L108.464 460.41L108.472 460.468L108.482 460.526L108.493 460.584L108.506 460.641L108.52 460.697L108.535 460.753L108.551 460.808L108.568 460.863L108.588 460.916L108.608 460.969L108.63 461.023L108.653 461.075L108.676 461.126L108.702 461.177L108.728 461.228L108.756 461.278L108.785 461.327L108.815 461.374L108.847 461.422L108.879 461.468L108.913 461.515L108.946 461.56L108.982 461.604L109.02 461.648L109.057 461.69L109.096 461.732L109.136 461.772L109.176 461.812L109.218 461.851L109.261 461.888L109.304 461.925L109.348 461.961L109.393 461.995L109.44 462.03L109.486 462.062L109.534 462.093L109.581 462.123L109.631 462.152L109.68 462.179L109.731 462.206L109.782 462.232L109.833 462.256L109.885 462.278L109.938 462.3L109.992 462.321L110.045 462.34L110.1 462.357L110.155 462.373L110.211 462.388L110.268 462.402L110.325 462.415L110.382 462.425L110.44 462.436L110.499 462.444L110.558 462.451L110.617 462.456L110.677 462.459L110.739 462.461L110.813 462.463H119.51L119.584 462.461L119.645 462.459L119.706 462.456L119.765 462.451L119.824 462.444L119.883 462.436L119.941 462.425L119.998 462.415L120.055 462.402L120.112 462.388L120.167 462.373L120.223 462.357L120.278 462.34L120.331 462.321L120.384 462.3L120.438 462.278L120.49 462.256L120.541 462.232L120.592 462.206L120.643 462.179L120.692 462.152L120.742 462.123L120.789 462.093L120.837 462.061L120.883 462.03L120.93 461.995L120.975 461.961L121.019 461.925L121.062 461.889L121.105 461.851L121.146 461.812L121.187 461.772L121.227 461.732L121.266 461.69L121.303 461.648L121.34 461.604L121.376 461.56L121.41 461.515L121.443 461.469L121.476 461.422L121.507 461.374L121.537 461.327L121.566 461.278L121.594 461.228L121.621 461.177L121.646 461.126L121.67 461.075L121.693 461.023L121.715 460.969L121.735 460.916L121.754 460.863L121.772 460.808L121.788 460.753L121.803 460.697L121.817 460.641L121.83 460.584L121.84 460.526L121.851 460.468L121.859 460.41L121.865 460.351L121.87 460.291L121.874 460.23L121.876 460.169L121.877 460.095V451.398L121.876 451.324L121.874 451.263L121.87 451.202L121.865 451.143L121.859 451.084L121.851 451.025L121.84 450.967L121.83 450.91L121.817 450.853L121.803 450.796L121.788 450.741L121.772 450.686L121.754 450.632L121.735 450.577L121.715 450.524L121.693 450.47L121.67 450.418L121.646 450.367L121.621 450.316L121.594 450.266L121.566 450.216L121.537 450.167L121.507 450.119L121.476 450.071L121.443 450.025L121.41 449.978L121.376 449.933L121.34 449.889L121.303 449.846L121.266 449.803L121.227 449.761L121.187 449.721L121.146 449.681L121.105 449.643L121.062 449.605L121.019 449.568L120.975 449.533L120.93 449.498L120.883 449.464L120.837 449.432L120.789 449.401L120.74 449.37L120.692 449.341L120.643 449.314L120.592 449.287L120.541 449.261L120.49 449.238L120.438 449.215L120.384 449.193L120.331 449.173L120.278 449.153L120.222 449.136L120.167 449.12L120.112 449.105L120.055 449.091L119.998 449.078L119.941 449.068L119.883 449.058L119.824 449.05L119.765 449.043L119.706 449.037L119.645 449.034L119.584 449.032L119.51 449.031H110.813Z" fill="#BABABA"/>
<path d="M115.161 27.4351C117.765 27.4351 119.875 25.3247 119.875 22.7215C119.875 20.1182 117.765 18.0078 115.161 18.0078C112.558 18.0078 110.448 20.1182 110.448 22.7215C110.448 25.3247 112.558 27.4351 115.161 27.4351Z" fill="#D8D8D8"/>
<path d="M115.161 24.8287C116.316 24.8287 117.252 23.8928 117.252 22.7384C117.252 21.584 116.316 20.6482 115.161 20.6482C114.007 20.6482 113.071 21.584 113.071 22.7384C113.071 23.8928 114.007 24.8287 115.161 24.8287Z" fill="#EB5055"/>
<path d="M214.999 69.5625H15.321V423.246H214.999V69.5625Z" fill="#161616"/>
<path fill-rule="evenodd" clip-rule="evenodd" d="M216.222 66.62L217.251 67.3097L217.945 68.3454L218.188 69.5625V423.246L217.945 424.466L217.251 425.501L216.222 426.191L214.999 426.434H15.321L14.1033 426.191L13.0693 425.501L12.38 424.466L12.1365 423.246V69.5625L12.38 68.3454L13.0693 67.3097L14.1033 66.62L15.321 66.3766H214.999L216.222 66.62ZM15.321 69.5625V423.246H214.999V69.5625H15.321Z" fill="#C7C7C7"/>
</g>
<defs>
<clipPath id="clip0">
<rect width="229.416" height="486.447" fill="white" transform="translate(0.453369 0.5)"/>
</clipPath>
</defs>
</svg>
