<svg width="142" height="299" viewBox="0 0 142 299" fill="none" xmlns="http://www.w3.org/2000/svg">
<g clip-path="url(#clip0)">
<path fill-rule="evenodd" clip-rule="evenodd" d="M140.708 18.0528C140.708 8.36495 132.843 0.5 123.155 0.5H17.8384C8.15053 0.5 0.285583 8.36495 0.285583 18.0528V280.695C0.285583 290.382 8.15053 298.247 17.8384 298.247H123.155C132.843 298.247 140.708 290.382 140.708 280.695V18.0528Z" fill="#F2F2F2"/>
<path fill-rule="evenodd" clip-rule="evenodd" d="M82.8501 25.5161C82.8501 24.6198 82.1221 23.8918 81.2262 23.8918H61.0694C60.1717 23.8918 59.4437 24.6198 59.4437 25.5161C59.4437 26.413 60.1717 27.141 61.0694 27.141H81.2262C82.1221 27.141 82.8501 26.413 82.8501 25.5161Z" fill="#ACACAC"/>
<path d="M70.8218 292.803C78.3394 292.803 84.4337 286.709 84.4337 279.192C84.4337 271.674 78.3394 265.58 70.8218 265.58C63.3042 265.58 57.21 271.674 57.21 279.192C57.21 286.709 63.3042 292.803 70.8218 292.803Z" fill="#FAFAFA"/>
<path fill-rule="evenodd" clip-rule="evenodd" d="M73.5599 273.812L73.6288 273.815L73.6963 273.819L73.7637 273.825L73.8312 273.833L73.8972 273.842L73.9633 273.853L74.0286 273.865L74.0939 273.88L74.1578 273.895L74.2217 273.912L74.2849 273.931L74.3467 273.951L74.4085 273.973L74.4696 273.997L74.5299 274.021L74.5896 274.047L74.6478 274.075L74.706 274.103L74.7628 274.134L74.8196 274.165L74.875 274.198L74.9297 274.232L74.983 274.267L75.0362 274.304L75.0881 274.342L75.1392 274.381L75.1889 274.421L75.2379 274.463L75.2855 274.505L75.3323 274.548L75.3785 274.593L75.4232 274.639L75.4665 274.686L75.5091 274.734L75.551 274.783L75.5908 274.833L75.6299 274.884L75.6675 274.936L75.7044 274.989L75.7399 275.042L75.774 275.097L75.8067 275.152L75.8379 275.209L75.8685 275.266L75.8969 275.324L75.9246 275.382L75.9508 275.442L75.9757 275.502L75.9984 275.563L76.0204 275.625L76.0403 275.687L76.0595 275.75L76.0765 275.814L76.0921 275.878L76.1063 275.943L76.1191 276.008L76.1298 276.075L76.139 276.141L76.1468 276.208L76.1525 276.275L76.1575 276.344L76.1596 276.412L76.1603 276.481V281.819L76.1596 281.888L76.1575 281.957L76.1525 282.024L76.1468 282.093L76.139 282.159L76.1298 282.226L76.1191 282.291L76.1063 282.358L76.0921 282.422L76.0765 282.486L76.0595 282.55L76.0403 282.613L76.0204 282.676L75.9984 282.737L75.9757 282.798L75.9508 282.858L75.9246 282.918L75.8969 282.977L75.8685 283.034L75.8379 283.092L75.8067 283.148L75.774 283.203L75.7399 283.258L75.7044 283.312L75.6675 283.364L75.6299 283.416L75.5908 283.467L75.551 283.517L75.5091 283.566L75.4665 283.614L75.4232 283.661L75.3785 283.707L75.3323 283.751L75.2855 283.795L75.2379 283.837L75.1889 283.879L75.1392 283.919L75.0881 283.958L75.0362 283.996L74.983 284.033L74.9297 284.068L74.875 284.102L74.8196 284.135L74.7628 284.167L74.706 284.197L74.6478 284.226L74.5896 284.253L74.5299 284.279L74.4696 284.304L74.4085 284.327L74.3467 284.349L74.2849 284.369L74.2217 284.388L74.1578 284.405L74.0939 284.42L74.0286 284.435L73.9633 284.447L73.8972 284.458L73.8312 284.467L73.7637 284.475L73.6963 284.481L73.6288 284.486L73.5599 284.488L73.491 284.489H68.1525L68.0836 284.488L68.0147 284.486L67.9473 284.481L67.8798 284.475L67.8123 284.467L67.7463 284.458L67.6803 284.447L67.6149 284.435L67.5496 284.42L67.4857 284.405L67.4218 284.388L67.3586 284.369L67.2968 284.349L67.235 284.327L67.174 284.304L67.1136 284.279L67.054 284.253L66.9957 284.226L66.9375 284.197L66.8807 284.167L66.8239 284.135L66.7685 284.102L66.7138 284.068L66.6606 284.033L66.6073 283.996L66.5555 283.958L66.5043 283.919L66.4546 283.879L66.4056 283.837L66.3581 283.795L66.3112 283.751L66.265 283.707L66.2203 283.661L66.177 283.614L66.1344 283.566L66.0925 283.517L66.0527 283.467L66.0137 283.416L65.9753 283.364L65.9391 283.312L65.9036 283.258L65.8695 283.203L65.8368 283.148L65.8056 283.092L65.7751 283.034L65.7459 282.977L65.719 282.918L65.6927 282.858L65.6678 282.798L65.6451 282.737L65.6231 282.676L65.6032 282.613L65.584 282.55L65.567 282.486L65.5514 282.422L65.5372 282.358L65.5244 282.291L65.5137 282.226L65.5045 282.159L65.4967 282.093L65.491 282.024L65.4861 281.957L65.4839 281.888L65.4832 281.819V276.481L65.4839 276.412L65.4861 276.344L65.491 276.275L65.4967 276.208L65.5045 276.141L65.5137 276.075L65.5244 276.008L65.5372 275.943L65.5514 275.878L65.567 275.814L65.584 275.75L65.6032 275.687L65.6231 275.625L65.6451 275.563L65.6678 275.502L65.6927 275.442L65.719 275.382L65.7459 275.324L65.7751 275.266L65.8056 275.209L65.8368 275.152L65.8695 275.097L65.9036 275.042L65.9391 274.989L65.9753 274.936L66.0137 274.884L66.0527 274.833L66.0925 274.783L66.1344 274.734L66.177 274.686L66.2203 274.639L66.265 274.593L66.3112 274.548L66.3581 274.505L66.4056 274.463L66.4546 274.421L66.5043 274.381L66.5555 274.342L66.6073 274.304L66.6606 274.267L66.7138 274.232L66.7685 274.198L66.8239 274.165L66.8807 274.134L66.9375 274.103L66.9957 274.075L67.054 274.047L67.1136 274.021L67.174 273.997L67.235 273.973L67.2968 273.951L67.3586 273.931L67.4218 273.912L67.4857 273.895L67.5496 273.88L67.6149 273.865L67.6803 273.853L67.7463 273.842L67.8123 273.833L67.8798 273.825L67.9473 273.819L68.0147 273.815L68.0836 273.812L68.1525 273.811H73.491L73.5599 273.812ZM68.1603 275.039L68.1149 275.04L68.0772 275.041L68.0403 275.043L68.0041 275.047L67.9679 275.051L67.9316 275.056L67.8961 275.062L67.8613 275.068L67.8265 275.076L67.7918 275.085L67.7577 275.094L67.7243 275.104L67.6902 275.114L67.6575 275.127L67.6249 275.139L67.5922 275.152L67.5603 275.166L67.529 275.18L67.4978 275.196L67.4665 275.212L67.4367 275.229L67.4069 275.247L67.3771 275.266L67.3479 275.285L67.3195 275.305L67.2911 275.325L67.2634 275.347L67.2365 275.368L67.2102 275.391L67.1839 275.414L67.1583 275.438L67.1335 275.462L67.1094 275.487L67.0852 275.512L67.0625 275.538L67.0398 275.565L67.0177 275.592L66.9972 275.619L66.9766 275.648L66.9567 275.676L66.9375 275.705L66.919 275.735L66.9013 275.765L66.8842 275.795L66.8679 275.826L66.8523 275.857L66.8381 275.888L66.8239 275.92L66.8104 275.953L66.7983 275.986L66.7863 276.019L66.7756 276.052L66.7657 276.086L66.7564 276.12L66.7479 276.155L66.7401 276.19L66.7337 276.224L66.7273 276.26L66.7223 276.296L66.7188 276.332L66.7152 276.368L66.7131 276.405L66.7117 276.443L66.711 276.488V281.811L66.7117 281.858L66.7131 281.895L66.7152 281.931L66.7188 281.968L66.7223 282.005L66.7273 282.04L66.7337 282.076L66.7401 282.111L66.7479 282.146L66.7564 282.18L66.7657 282.214L66.7756 282.248L66.7863 282.282L66.7983 282.314L66.8104 282.347L66.8239 282.38L66.8381 282.411L66.8523 282.443L66.8679 282.474L66.8842 282.505L66.9013 282.536L66.919 282.566L66.9375 282.595L66.9567 282.624L66.9766 282.652L66.9972 282.681L67.0177 282.708L67.0398 282.735L67.0625 282.762L67.0852 282.788L67.1094 282.813L67.1335 282.838L67.1583 282.862L67.1839 282.887L67.2102 282.909L67.2365 282.932L67.2634 282.954L67.2911 282.975L67.3195 282.996L67.3479 283.016L67.3771 283.034L67.4062 283.053L67.4367 283.07L67.4665 283.087L67.4978 283.104L67.529 283.119L67.5603 283.134L67.5922 283.148L67.6249 283.161L67.6575 283.174L67.6902 283.185L67.7236 283.196L67.7577 283.206L67.7918 283.215L67.8265 283.224L67.8613 283.232L67.8961 283.238L67.9316 283.244L67.9679 283.249L68.0041 283.254L68.0403 283.256L68.0772 283.259L68.1149 283.26L68.1603 283.261H73.4832L73.5287 283.26L73.5663 283.259L73.6032 283.256L73.6394 283.254L73.6757 283.249L73.7119 283.244L73.7474 283.238L73.7822 283.232L73.817 283.224L73.8518 283.215L73.8859 283.206L73.9199 283.196L73.9533 283.185L73.986 283.174L74.0186 283.161L74.0513 283.148L74.0833 283.134L74.1145 283.119L74.1458 283.104L74.177 283.087L74.2068 283.07L74.2374 283.053L74.2665 283.034L74.2956 283.015L74.324 282.996L74.3524 282.975L74.3801 282.954L74.4071 282.932L74.4333 282.91L74.4596 282.887L74.4852 282.862L74.51 282.838L74.5342 282.813L74.5583 282.788L74.581 282.762L74.6038 282.735L74.6258 282.708L74.6464 282.681L74.667 282.653L74.6868 282.624L74.706 282.595L74.7245 282.566L74.7422 282.536L74.7593 282.505L74.7756 282.474L74.7912 282.443L74.8054 282.411L74.8196 282.38L74.8331 282.347L74.8452 282.314L74.8573 282.282L74.8679 282.248L74.8779 282.214L74.8871 282.18L74.8956 282.146L74.9034 282.111L74.9098 282.076L74.9162 282.04L74.9212 282.005L74.9247 281.968L74.9283 281.931L74.9304 281.895L74.9318 281.857L74.9325 281.811V276.488L74.9318 276.443L74.9304 276.405L74.9283 276.368L74.9247 276.332L74.9212 276.296L74.9162 276.26L74.9098 276.224L74.9034 276.19L74.8956 276.155L74.8871 276.12L74.8779 276.086L74.8679 276.052L74.8573 276.019L74.8452 275.986L74.8331 275.953L74.8196 275.92L74.8054 275.888L74.7912 275.857L74.7756 275.826L74.7593 275.795L74.7422 275.765L74.7245 275.735L74.706 275.705L74.6868 275.676L74.667 275.648L74.6464 275.619L74.6258 275.592L74.6038 275.565L74.581 275.538L74.5583 275.512L74.5342 275.487L74.51 275.462L74.4852 275.438L74.4596 275.414L74.4333 275.391L74.4071 275.368L74.3801 275.347L74.3524 275.325L74.324 275.305L74.2956 275.285L74.2665 275.266L74.2366 275.247L74.2068 275.229L74.177 275.212L74.1458 275.196L74.1145 275.18L74.0833 275.166L74.0513 275.152L74.0186 275.139L73.986 275.127L73.9533 275.114L73.9192 275.104L73.8859 275.094L73.8518 275.085L73.817 275.076L73.7822 275.068L73.7474 275.062L73.7119 275.056L73.6757 275.051L73.6394 275.047L73.6032 275.043L73.5663 275.041L73.5287 275.04L73.4832 275.039H68.1603Z" fill="#BABABA"/>
<path d="M70.8218 16.9866C72.4152 16.9866 73.707 15.6949 73.707 14.1015C73.707 12.508 72.4152 11.2163 70.8218 11.2163C69.2284 11.2163 67.9366 12.508 67.9366 14.1015C67.9366 15.6949 69.2284 16.9866 70.8218 16.9866Z" fill="#D8D8D8"/>
<path d="M70.8218 15.3913C71.5284 15.3913 72.1012 14.8185 72.1012 14.1119C72.1012 13.4053 71.5284 12.8325 70.8218 12.8325C70.1152 12.8325 69.5424 13.4053 69.5424 14.1119C69.5424 14.8185 70.1152 15.3913 70.8218 15.3913Z" fill="#EB5055"/>
<path d="M131.931 42.7722H9.71094V259.257H131.931V42.7722Z" fill="#161616"/>
<path fill-rule="evenodd" clip-rule="evenodd" d="M132.679 40.9711L133.309 41.3933L133.734 42.0272L133.883 42.7722V259.257L133.734 260.003L133.309 260.637L132.679 261.059L131.931 261.208H9.71092L8.96556 261.059L8.3327 260.637L7.9108 260.003L7.76172 259.257V42.7722L7.9108 42.0272L8.3327 41.3933L8.96556 40.9711L9.71092 40.8221H131.931L132.679 40.9711ZM9.71092 42.7722V259.257H131.931V42.7722H9.71092Z" fill="#C7C7C7"/>
</g>
<defs>
<clipPath id="clip0">
<rect width="140.422" height="297.747" fill="white" transform="translate(0.610657 0.5)"/>
</clipPath>
</defs>
</svg>
